<svg width="59" height="48" viewBox="0 0 59 48" fill="none" xmlns="http://www.w3.org/2000/svg">
<path d="M32.4687 1.19357C32.3382 3.92571 31.844 4.98874 28.972 8.75593C27.881 10.1826 27.2282 11.3109 26.8459 12.4485C26.1559 14.472 26.1745 17.0736 26.9019 20.0388C27.1909 21.2231 27.825 23.2745 27.881 23.2186C27.8996 23.1999 27.9835 22.8549 28.0675 22.4446C28.3938 20.8501 29.0559 19.2835 30.38 16.9897C31.2285 15.5257 31.9932 13.8752 32.2543 12.9614C32.534 11.9823 32.6925 10.5463 32.6366 9.55785L32.5993 8.83052L32.7391 9.34338C32.8231 9.66975 32.879 10.2852 32.879 11.0218C32.8883 12.8868 32.6179 13.8939 31.0514 17.6331C30.0536 20.0295 29.634 21.2604 29.3822 22.4913C29.1211 23.7967 29.1118 23.7035 29.5594 23.7035C30.1935 23.7035 31.5456 23.4424 32.3755 23.1533C34.4735 22.4353 36.2732 20.7009 37.0658 18.6401C37.6626 17.1109 37.7652 16.4861 37.7652 14.3321C37.7652 12.663 37.7279 12.2154 37.5507 11.3202C36.8607 7.88873 35.378 4.4106 33.1215 0.913828L32.5247 3.8147e-06L32.4687 1.19357Z" fill="#006400" fill-opacity="0.25"/>
<path d="M11.7865 12.7189C12.6164 13.8379 12.9148 14.6958 12.98 16.1971C13.0173 17.0922 12.98 17.661 12.7842 19.0784C12.3833 21.9877 12.4765 23.1533 13.2411 24.7012C13.9312 26.0999 15.5257 27.6385 17.5492 28.8507C18.6495 29.5128 18.6402 29.5128 18.3604 28.8227C17.8942 27.6665 17.7636 26.8179 17.6704 24.1231C17.6051 22.1276 17.5398 21.4469 17.3906 20.8221C17.1575 19.871 16.6167 18.7987 16.0199 18.1179C15.4697 17.4839 15.7775 17.6424 16.4861 18.3511C17.5398 19.4048 18.0061 20.7009 18.463 23.7501C18.7707 25.8575 18.9758 26.7993 19.3488 27.8157C19.7964 29.0559 19.7498 29.0372 20.5797 28.3285C22.2768 26.8739 23.461 24.9623 23.7967 23.0974C24.0951 21.4376 23.5916 19.5167 22.4446 18.0154C20.6077 15.6003 17.2881 13.6887 13.0267 12.5977C12.2434 12.4019 11.5627 12.234 11.5067 12.234C11.4601 12.234 11.5813 12.4578 11.7865 12.7189Z" fill="#006400" fill-opacity="0.25"/>
<path d="M51.7616 13.7353C46.9314 14.2295 43.2388 15.6749 40.9356 17.9594C39.6488 19.2462 38.8282 20.7475 38.5484 22.3421C38.3992 23.2466 38.4925 24.9623 38.7443 25.8482C38.968 26.6408 39.4809 27.8996 39.5648 27.8996C39.6021 27.8996 39.9005 27.6945 40.2362 27.4427C41.1314 26.7713 42.614 25.2048 44.2925 23.144C46.7635 20.1321 48.0317 19.0318 49.9153 18.2858C51.2021 17.7729 51.258 17.8382 50.0645 18.463C48.1156 19.4794 47.0153 20.561 45.4487 22.9575C44.8986 23.806 44.1619 24.9157 43.8076 25.4285C43.1269 26.4263 41.8121 27.8623 41.0661 28.4311C40.8143 28.6269 40.6465 28.7948 40.7024 28.8134C40.8516 28.8694 42.4182 28.5803 43.5465 28.3099C47.8265 27.2562 50.3442 25.6337 51.9947 22.8549C52.2092 22.5006 52.75 21.4003 53.1976 20.4118C54.4191 17.7356 54.9413 16.9151 56.1442 15.7774C56.8622 15.1061 57.5429 14.6212 58.3542 14.2295C58.6432 14.0897 58.8857 13.9405 58.8857 13.9032C58.8857 13.7913 57.8227 13.726 55.2024 13.6887C53.7664 13.6607 52.2185 13.6794 51.7616 13.7353Z" fill="#006400" fill-opacity="0.25"/>
<path d="M28.3192 23.8433C28.0115 26.0347 27.9463 27.7318 28.1234 29.578C28.3192 31.788 28.9533 34.1751 29.8298 36.0494C30.063 36.5623 30.2495 36.9912 30.2308 37.0099C30.1469 37.0938 27.853 36.2173 26.762 35.6857C23.8713 34.287 21.6521 32.4221 19.6472 29.7179C19.2649 29.2051 18.9386 28.7668 18.9106 28.7388C18.8173 28.6363 19.5726 30.324 19.8337 30.7903C21.1205 33.0655 23.0601 35.0796 25.2794 36.4597C26.1652 37.0099 28.0115 37.9423 28.8414 38.2594C29.1585 38.3806 29.4196 38.5111 29.4196 38.5484C29.4196 38.5951 29.2704 38.623 29.0932 38.623C28.2353 38.623 24.9717 39.341 23.6382 39.8259C22.9389 40.0777 23.0974 40.0684 24.9623 39.742C27.0231 39.397 29.0466 39.1825 30.3427 39.1825C31.2379 39.1825 31.5083 39.2198 32.5154 39.5182C33.1494 39.6954 35.406 40.2922 37.5321 40.8237C41.896 41.924 42.7073 42.1571 44.6189 42.8098C47.7986 43.8915 50.1764 45.2249 52.1066 46.9966C53.1696 47.9757 53.4867 48.1436 53.7571 47.9011C54.186 47.5095 53.897 45.915 53.0577 44.1433C52.5076 42.9684 52.3584 42.3902 52.3584 41.4671C52.3584 41.1127 52.3118 40.8423 52.2465 40.7864C52.0693 40.6465 50.3443 40.1616 49.0388 39.8912C47.0153 39.4716 45.0012 39.1918 41.1687 38.8095C38.6883 38.5578 36.7954 38.3526 36.525 38.2873C36.3199 38.25 36.3105 38.2127 36.3665 37.6626C36.6369 34.9211 37.0752 33.2613 38.0263 31.4057C38.4552 30.5665 39.425 29.1305 39.6674 28.9813C39.7234 28.944 39.8166 28.8227 39.8819 28.7108C40.0218 28.4311 39.0334 29.2983 38.2128 30.1655C36.3105 32.1703 35.4154 34.1845 35.117 37.1218C35.061 37.5973 35.0051 38.0169 34.9771 38.0449C34.9118 38.1102 32.6832 37.6906 32.4594 37.5693C32.0398 37.3549 31.0048 35.8816 30.3054 34.5108C29.0466 32.0491 28.6176 29.8485 28.4964 25.3353L28.4405 23.0041L28.3192 23.8433Z" fill="#967117" fill-opacity="0.25"/>
<path d="M13.9405 37.5041C12.2247 37.7092 10.8353 38.25 8.42023 39.6301C7.43181 40.1989 6.27554 40.805 5.85593 40.9915C4.25208 41.6722 2.76012 41.9426 1.07234 41.8401L0 41.7748L0.233118 41.9613C0.643406 42.2783 2.58295 43.5185 3.4688 44.0127C7.88872 46.5304 12.635 47.8265 16.1225 47.4908C20.5051 47.0619 23.2279 44.768 23.8713 40.9635L23.9366 40.5532L23.0228 40.6092C21.7546 40.7024 20.2906 41.0195 17.4372 41.8307C13.8286 42.8658 12.4858 43.0896 10.826 42.9124C10.0894 42.8378 8.99837 42.6513 8.99837 42.6047C8.99837 42.5954 9.82827 42.586 10.8353 42.586C12.0662 42.586 12.8495 42.5487 13.1945 42.4648C14.416 42.1571 15.1434 41.9147 17.2041 41.0941C18.407 40.6092 19.7591 40.115 20.2067 39.9844C21.1205 39.7233 22.4913 39.4622 22.9855 39.4622C23.7874 39.4529 23.517 39.2851 21.708 38.6883C18.4909 37.6253 16.0665 37.2523 13.9405 37.5041Z" fill="#006400" fill-opacity="0.25"/>
</svg>
